<!--?xml version="1.0" encoding="utf-8"?-->
<svg aria-hidden="true" focusable="false" data-prefix="fas" data-icon="horseshoe" role="img" xmlns="http://www.w3.org/2000/svg" viewBox="0 0 512 512">
<g>
	<path fill="currentColor" d="M488.455,274.707c-6.558-96.435-53.039-183.31-53.039-183.31c-1.602-5.504,1.366-11.313,6.777-13.252
		l13.37-4.796c9.12-3.272,14.06-13.126,11.211-22.39l-11.7-38.144c-2.9-9.475-12.88-14.862-22.388-12.088L347.95,25.326
		c-9.492,2.748-15.038,12.594-12.459,22.136c0,0,57.001,155.282,57.001,211.195c0,69.966-55.888,132.429-136.492,132.429
		c-80.604,0-136.492-62.463-136.492-132.429c0-55.913,57.001-211.195,57.001-211.195c2.58-9.542-2.95-19.388-12.442-22.136
		L79.332,0.728c-9.525-2.774-19.489,2.613-22.388,12.088L45.243,50.96c-2.849,9.264,2.091,19.118,11.211,22.39l13.353,4.796
		c5.429,1.938,8.379,7.747,6.794,13.252c0,0-46.497,86.875-53.056,183.31C14.188,412.202,124.431,512,256,512
		C387.586,512,497.812,412.202,488.455,274.707z M75.151,325.841c-9.542,0-17.264-7.738-17.264-17.28
		c0-9.534,7.722-17.264,17.264-17.264c9.542,0,17.264,7.73,17.264,17.264C92.415,318.102,84.694,325.841,75.151,325.841z
		 M87.56,199.178c-9.525,0-17.264-7.739-17.264-17.281c0-9.542,7.739-17.28,17.264-17.28c9.542,0,17.281,7.739,17.281,17.28
		C104.841,191.439,97.102,199.178,87.56,199.178z M138.491,433.318c-9.542,0-17.28-7.755-17.28-17.272
		c0-9.559,7.738-17.289,17.28-17.289c9.543,0,17.264,7.73,17.264,17.289C155.755,425.564,148.034,433.318,138.491,433.318z
		 M373.526,433.318c-9.542,0-17.264-7.755-17.264-17.272c0-9.559,7.722-17.289,17.264-17.289c9.542,0,17.281,7.73,17.281,17.289
		C390.806,425.564,383.068,433.318,373.526,433.318z M407.177,181.897c0-9.542,7.721-17.28,17.264-17.28
		c9.542,0,17.28,7.739,17.28,17.28c0,9.542-7.738,17.281-17.28,17.281C414.898,199.178,407.177,191.439,407.177,181.897z
		 M436.849,325.841c-9.543,0-17.264-7.738-17.264-17.28c0-9.534,7.721-17.264,17.264-17.264c9.542,0,17.28,7.73,17.28,17.264
		C454.129,318.102,446.392,325.841,436.849,325.841z"></path>
</g>
</svg>
