<?xml version="1.0" encoding="UTF-8"?>
<svg version="1.1" xmlns="http://www.w3.org/2000/svg" xmlns:svg="http://www.w3.org/2000/svg" xmlns:xlink="http://www.w3.org/1999/xlink" viewBox="0 0 1638.4 1638.4">
	<defs>
		<symbol id="logo" viewBox="0 0 768 768">
			<path fill="#ff9cd1" d="M768 0H512C229.23 0 0 229.23 0 512v256h256V512c0-141.38 114.62-256 256-256h256Z"/>
			<path fill="#4b8b78" d="M512 384h-32a96 96 0 0 0-96 96v32h128Z"/>
			<path fill="#00bb98" d="M768 768V384H512v128h128v128H512V512H384v256h384z"/>
		</symbol>
		<symbol id="white" viewBox="0 0 1024 1024">
			<path fill="#ffffff" d="M1024 1024H0V640C0 286.54 286.54 0 640 0h384Z"/>
		</symbol>
	</defs>
	<rect fill="#00bb98" width="1638.4" height="1638.4" />
	<use xlink:href="#white" width="1024" height="1024" transform="translate(307.2 307.2)"/>
	<use xlink:href="#logo" width="768" height="768" transform="translate(435.2 435.2)"/>
</svg>
